<svg xmlns="http://www.w3.org/2000/svg" viewBox="0 0 100.75 93.97"><defs><style>.cls-1{fill:#f60601;}</style></defs><g id="Layer_2" data-name="Layer 2"><g id="Layer_1-2" data-name="Layer 1"><path class="cls-1" d="M59.69,5.93V0H88.18V5.89h5.11v7.45h7.46v26.9H93.44V53.67H88.22v7.57H80.65V68h-6v5.86h-7.5v6.78H59.74v6.65h-6V94H47V87.38H40.32V80.67h-6.7V73.91H26.83V68.05H19.3v-6.8H12.58V53.72H6.67V40.32H0V13.38H6.62V5.93h5.87V0H40.28V5.88H47V13.3h6.76V5.93ZM20.05,13.24c-.38,0-.76.1-1.14.11H12.59V39.44h7.49c0-.24,0-.41,0-.59q0-12.45,0-24.92a5.88,5.88,0,0,0-.07-.71,3.33,3.33,0,0,0,.69.12H32.87c.2,0,.4,0,.65-.07V6H20.05Z"/></g></g></svg>